<?xml version="1.0" encoding="UTF-8"?>
<svg id="Ebene_1" data-name="Ebene 1" xmlns="http://www.w3.org/2000/svg" viewBox="0 0 362.67 395.64">
  <defs>
    <style>
      .cls-1 {
        fill: #000001;
      }
    </style>
  </defs>
  <path class="cls-1" d="M342.09,14.37h-36.01c-2.63,0-4.36-2.67-3.25-5,2.31-4.84-1.1-7.71-2.92-8.82C299.33.19,298.67,0,297.99,0H64.68c-.68,0-1.34.19-1.92.54-1.82,1.12-5.24,3.98-2.92,8.82,1.11,2.33-.62,5-3.25,5H20.58c-11.7,0-20.98,9.51-20.57,20.93,3.73,100.4,45.26,164.87,140.78,217.32,1.11.61,1.82,1.74,1.84,2.98.07,4.4,1.42,14.77,15.42,17.92,5.75,1.3,4.52,9.87,1.24,11.06-16.62,6.05-14.5,19.44-6.19,24.53,2.93,1.8-27.74,34.07-54.27,41.8-5.67,1.65-10.31,7.71-10.31,13.5v6.98c0,1.94-1.61,3.51-3.59,3.51h0c-4.65,0-8.42,3.68-8.42,8.23v8.99c0,1.94,1.61,3.51,3.59,3.51h202.46c1.99,0,3.59-1.57,3.59-3.51v-8.98c0-4.55-3.77-8.24-8.43-8.24h0c-1.99,0-3.59-1.57-3.59-3.51v-6.98c0-5.79-4.64-11.85-10.31-13.5-26.53-7.73-57.19-40-54.27-41.8,8.31-5.1,10.43-18.49-6.19-24.53-3.28-1.19-4.51-9.76,1.24-11.06,14.01-3.15,15.36-13.52,15.42-17.92.02-1.24.73-2.38,1.84-2.98,95.53-52.44,137.05-116.92,140.78-217.32.42-11.42-8.87-20.93-20.57-20.93ZM86.96,186.35C35.6,136.66,28.86,98.36,26.39,41.87c-.09-2,1.54-3.67,3.59-3.67h38.57c1.92,0,3.51,1.49,3.59,3.36,2.43,54.16,2.16,95.61,18.42,142.57.73,2.13-1.96,3.79-3.6,2.21ZM275.71,186.35c-1.64,1.58-4.33-.08-3.6-2.21,16.26-46.97,16-88.41,18.42-142.57.08-1.88,1.67-3.36,3.59-3.36h38.57c2.05,0,3.68,1.67,3.59,3.67-2.48,56.49-9.22,94.79-60.58,144.48Z"/>
</svg>